<svg width="124" height="24" viewBox="0 0 124 24" fill="none" xmlns="http://www.w3.org/2000/svg">
<path d="M111.531 0C118.159 0 123.531 5.37258 123.531 12C123.531 18.6274 118.159 24 111.531 24H12C5.37258 24 0 18.6274 0 12C0 5.37258 5.37258 0 12 0H111.531Z" fill="#F3E8FF"/>
<path d="M111.531 0C118.159 0 123.531 5.37258 123.531 12C123.531 18.6274 118.159 24 111.531 24H12C5.37258 24 0 18.6274 0 12C0 5.37258 5.37258 0 12 0H111.531Z" stroke="#E5E7EB"/>
<path d="M27 20H12V4H27V20Z" stroke="#E5E7EB"/>
<g clip-path="url(#clip0_1_3018)">
<path d="M16.5 7C14.0156 7 12 9.01562 12 11.5C12 13.9844 14.0156 16 16.5 16H22.5C24.9844 16 27 13.9844 27 11.5C27 9.01562 24.9844 7 22.5 7H16.5ZM23.625 9.4375C23.8736 9.4375 24.1121 9.53627 24.2879 9.71209C24.4637 9.8879 24.5625 10.1264 24.5625 10.375C24.5625 10.6236 24.4637 10.8621 24.2879 11.0379C24.1121 11.2137 23.8736 11.3125 23.625 11.3125C23.3764 11.3125 23.1379 11.2137 22.9621 11.0379C22.7863 10.8621 22.6875 10.6236 22.6875 10.375C22.6875 10.1264 22.7863 9.8879 22.9621 9.71209C23.1379 9.53627 23.3764 9.4375 23.625 9.4375ZM21.1875 12.625C21.1875 12.3764 21.2863 12.1379 21.4621 11.9621C21.6379 11.7863 21.8764 11.6875 22.125 11.6875C22.3736 11.6875 22.6121 11.7863 22.7879 11.9621C22.9637 12.1379 23.0625 12.3764 23.0625 12.625C23.0625 12.8736 22.9637 13.1121 22.7879 13.2879C22.6121 13.4637 22.3736 13.5625 22.125 13.5625C21.8764 13.5625 21.6379 13.4637 21.4621 13.2879C21.2863 13.1121 21.1875 12.8736 21.1875 12.625ZM15.9375 10.1875C15.9375 9.87578 16.1883 9.625 16.5 9.625C16.8117 9.625 17.0625 9.87578 17.0625 10.1875V10.9375H17.8125C18.1242 10.9375 18.375 11.1883 18.375 11.5C18.375 11.8117 18.1242 12.0625 17.8125 12.0625H17.0625V12.8125C17.0625 13.1242 16.8117 13.375 16.5 13.375C16.1883 13.375 15.9375 13.1242 15.9375 12.8125V12.0625H15.1875C14.8758 12.0625 14.625 11.8117 14.625 11.5C14.625 11.1883 14.8758 10.9375 15.1875 10.9375H15.9375V10.1875Z" fill="#9333EA"/>
</g>
<path d="M31.9588 16V7.27273H37.4304V8.40625H33.2756V11.0653H37.1449V12.1946H33.2756V14.8665H37.4815V16H31.9588ZM40.3612 12.1136V16H39.087V9.45455H40.31V10.5199H40.391C40.5415 10.1733 40.7773 9.89489 41.0984 9.68466C41.4222 9.47443 41.8299 9.36932 42.3214 9.36932C42.7674 9.36932 43.158 9.46307 43.4933 9.65057C43.8285 9.83523 44.0884 10.1108 44.2731 10.4773C44.4577 10.8437 44.5501 11.2969 44.5501 11.8366V16H43.2759V11.9901C43.2759 11.5156 43.1523 11.1449 42.9052 10.8778C42.658 10.608 42.3185 10.473 41.8867 10.473C41.5913 10.473 41.3285 10.5369 41.0984 10.6648C40.8711 10.7926 40.6907 10.9801 40.5572 11.2273C40.4265 11.4716 40.3612 11.767 40.3612 12.1136ZM49.3143 9.45455V10.4773H45.739V9.45455H49.3143ZM46.6978 7.88636H47.9719V14.0781C47.9719 14.3253 48.0089 14.5114 48.0827 14.6364C48.1566 14.7585 48.2518 14.8423 48.3683 14.8878C48.4876 14.9304 48.6168 14.9517 48.756 14.9517C48.8583 14.9517 48.9478 14.9446 49.0245 14.9304C49.1012 14.9162 49.1609 14.9048 49.2035 14.8963L49.4336 15.9489C49.3597 15.9773 49.2546 16.0057 49.1183 16.0341C48.9819 16.0653 48.8114 16.0824 48.6069 16.0852C48.2717 16.0909 47.9592 16.0312 47.6694 15.9062C47.3796 15.7812 47.1452 15.5881 46.9663 15.3267C46.7873 15.0653 46.6978 14.7372 46.6978 14.3423V7.88636ZM53.4744 16.1321C52.8295 16.1321 52.2741 15.9943 51.8082 15.7188C51.3452 15.4403 50.9872 15.0497 50.7344 14.5469C50.4844 14.0412 50.3594 13.4489 50.3594 12.7699C50.3594 12.0994 50.4844 11.5085 50.7344 10.9972C50.9872 10.4858 51.3395 10.0866 51.7912 9.79972C52.2457 9.51278 52.777 9.36932 53.3849 9.36932C53.7543 9.36932 54.1122 9.4304 54.4588 9.55256C54.8054 9.67472 55.1165 9.86648 55.392 10.1278C55.6676 10.3892 55.8849 10.7287 56.044 11.1463C56.2031 11.5611 56.2827 12.0653 56.2827 12.6591V13.1108H51.0795V12.1562H55.0341C55.0341 11.821 54.9659 11.5241 54.8295 11.2656C54.6932 11.0043 54.5014 10.7983 54.2543 10.6477C54.0099 10.4972 53.723 10.4219 53.3935 10.4219C53.0355 10.4219 52.723 10.5099 52.456 10.6861C52.1918 10.8594 51.9872 11.0866 51.8423 11.3679C51.7003 11.6463 51.6293 11.9489 51.6293 12.2756V13.0213C51.6293 13.4588 51.706 13.831 51.8594 14.1378C52.0156 14.4446 52.233 14.679 52.5114 14.8409C52.7898 15 53.1151 15.0795 53.4872 15.0795C53.7287 15.0795 53.9489 15.0455 54.1477 14.9773C54.3466 14.9062 54.5185 14.8011 54.6634 14.6619C54.8082 14.5227 54.919 14.3509 54.9957 14.1463L56.2017 14.3636C56.1051 14.7187 55.9318 15.0298 55.6818 15.2969C55.4347 15.5611 55.1236 15.767 54.7486 15.9148C54.3764 16.0597 53.9517 16.1321 53.4744 16.1321ZM57.6964 16V9.45455H58.9279V10.4943H58.9961C59.1154 10.142 59.3256 9.86506 59.6268 9.66335C59.9308 9.45881 60.2745 9.35653 60.658 9.35653C60.7376 9.35653 60.8313 9.35937 60.9393 9.36506C61.0501 9.37074 61.1367 9.37784 61.1992 9.38636V10.6051C61.1481 10.5909 61.0572 10.5753 60.9265 10.5582C60.7958 10.5384 60.6651 10.5284 60.5344 10.5284C60.2333 10.5284 59.9648 10.5923 59.729 10.7202C59.4961 10.8452 59.3114 11.0199 59.1751 11.2443C59.0387 11.4659 58.9705 11.7187 58.9705 12.0028V16H57.6964ZM65.744 9.45455V10.4773H62.1687V9.45455H65.744ZM63.1275 7.88636H64.4016V14.0781C64.4016 14.3253 64.4386 14.5114 64.5124 14.6364C64.5863 14.7585 64.6815 14.8423 64.7979 14.8878C64.9173 14.9304 65.0465 14.9517 65.1857 14.9517C65.288 14.9517 65.3775 14.9446 65.4542 14.9304C65.5309 14.9162 65.5906 14.9048 65.6332 14.8963L65.8633 15.9489C65.7894 15.9773 65.6843 16.0057 65.5479 16.0341C65.4116 16.0653 65.2411 16.0824 65.0366 16.0852C64.7013 16.0909 64.3888 16.0312 64.0991 15.9062C63.8093 15.7812 63.5749 15.5881 63.396 15.3267C63.217 15.0653 63.1275 14.7372 63.1275 14.3423V7.88636ZM69.0582 16.1449C68.6435 16.1449 68.2685 16.0682 67.9332 15.9148C67.598 15.7585 67.3324 15.5327 67.1364 15.2372C66.9432 14.9418 66.8466 14.5795 66.8466 14.1506C66.8466 13.7812 66.9176 13.4773 67.0597 13.2386C67.2017 13 67.3935 12.8111 67.6349 12.6719C67.8764 12.5327 68.1463 12.4276 68.4446 12.3565C68.7429 12.2855 69.0469 12.2315 69.3565 12.1946C69.7486 12.1491 70.0668 12.1122 70.3111 12.0838C70.5554 12.0526 70.733 12.0028 70.8438 11.9347C70.9545 11.8665 71.0099 11.7557 71.0099 11.6023V11.5724C71.0099 11.2003 70.9048 10.9119 70.6946 10.7074C70.4872 10.5028 70.1776 10.4006 69.7656 10.4006C69.3366 10.4006 68.9986 10.4957 68.7514 10.6861C68.5071 10.8736 68.3381 11.0824 68.2443 11.3125L67.0469 11.0398C67.1889 10.642 67.3963 10.321 67.669 10.0767C67.9446 9.82955 68.2614 9.65057 68.6193 9.53977C68.9773 9.42614 69.3537 9.36932 69.7486 9.36932C70.0099 9.36932 70.2869 9.40057 70.5795 9.46307C70.875 9.52273 71.1506 9.63352 71.4062 9.79545C71.6648 9.95739 71.8764 10.1889 72.0412 10.4901C72.206 10.7884 72.2884 11.1761 72.2884 11.6534V16H71.044V15.1051H70.9929C70.9105 15.2699 70.7869 15.4318 70.6222 15.5909C70.4574 15.75 70.2457 15.8821 69.9872 15.9872C69.7287 16.0923 69.419 16.1449 69.0582 16.1449ZM69.3352 15.1222C69.6875 15.1222 69.9886 15.0526 70.2386 14.9134C70.4915 14.7741 70.6832 14.5923 70.8139 14.3679C70.9474 14.1406 71.0142 13.8977 71.0142 13.6392V12.7955C70.9688 12.8409 70.8807 12.8835 70.75 12.9233C70.6222 12.9602 70.4759 12.9929 70.3111 13.0213C70.1463 13.0469 69.9858 13.071 69.8295 13.0938C69.6733 13.1136 69.5426 13.1307 69.4375 13.1449C69.1903 13.1761 68.9645 13.2287 68.7599 13.3026C68.5582 13.3764 68.3963 13.483 68.2741 13.6222C68.1548 13.7585 68.0952 13.9403 68.0952 14.1676C68.0952 14.483 68.2116 14.7216 68.4446 14.8835C68.6776 15.0426 68.9744 15.1222 69.3352 15.1222ZM73.9854 16V9.45455H75.2596V16H73.9854ZM74.6289 8.4446C74.4073 8.4446 74.217 8.37074 74.0579 8.22301C73.9016 8.07244 73.8235 7.89347 73.8235 7.68608C73.8235 7.47585 73.9016 7.29687 74.0579 7.14915C74.217 6.99858 74.4073 6.9233 74.6289 6.9233C74.8505 6.9233 75.0394 6.99858 75.1957 7.14915C75.3548 7.29687 75.4343 7.47585 75.4343 7.68608C75.4343 7.89347 75.3548 8.07244 75.1957 8.22301C75.0394 8.37074 74.8505 8.4446 74.6289 8.4446ZM78.2479 12.1136V16H76.9737V9.45455H78.1967V10.5199H78.2777C78.4283 10.1733 78.6641 9.89489 78.9851 9.68466C79.3089 9.47443 79.7166 9.36932 80.2081 9.36932C80.6541 9.36932 81.0447 9.46307 81.38 9.65057C81.7152 9.83523 81.9751 10.1108 82.1598 10.4773C82.3445 10.8437 82.4368 11.2969 82.4368 11.8366V16H81.1626V11.9901C81.1626 11.5156 81.0391 11.1449 80.7919 10.8778C80.5447 10.608 80.2053 10.473 79.7734 10.473C79.478 10.473 79.2152 10.5369 78.9851 10.6648C78.7578 10.7926 78.5774 10.9801 78.4439 11.2273C78.3132 11.4716 78.2479 11.767 78.2479 12.1136ZM84.1456 16V9.45455H85.3686V10.5199H85.4496C85.5859 10.1591 85.8089 9.87784 86.1186 9.67614C86.4283 9.47159 86.799 9.36932 87.2308 9.36932C87.6683 9.36932 88.0348 9.47159 88.3303 9.67614C88.6286 9.88068 88.8487 10.1619 88.9908 10.5199H89.0589C89.2152 10.1705 89.4638 9.89205 89.8047 9.68466C90.1456 9.47443 90.5518 9.36932 91.0234 9.36932C91.6172 9.36932 92.1016 9.5554 92.4766 9.92756C92.8544 10.2997 93.0433 10.8608 93.0433 11.6108V16H91.7692V11.7301C91.7692 11.2869 91.6484 10.9659 91.407 10.767C91.1655 10.5682 90.8771 10.4688 90.5419 10.4688C90.1271 10.4688 89.8047 10.5966 89.5746 10.8523C89.3445 11.1051 89.2294 11.4304 89.2294 11.8281V16H87.9595V11.6491C87.9595 11.294 87.8487 11.0085 87.6271 10.7926C87.4055 10.5767 87.1172 10.4688 86.7621 10.4688C86.5206 10.4688 86.2976 10.5327 86.093 10.6605C85.8913 10.7855 85.728 10.9602 85.603 11.1847C85.4808 11.4091 85.4197 11.669 85.4197 11.9645V16H84.1456ZM97.5721 16.1321C96.9272 16.1321 96.3718 15.9943 95.9059 15.7188C95.4428 15.4403 95.0849 15.0497 94.832 14.5469C94.582 14.0412 94.457 13.4489 94.457 12.7699C94.457 12.0994 94.582 11.5085 94.832 10.9972C95.0849 10.4858 95.4371 10.0866 95.8888 9.79972C96.3434 9.51278 96.8746 9.36932 97.4826 9.36932C97.8519 9.36932 98.2099 9.4304 98.5565 9.55256C98.9031 9.67472 99.2141 9.86648 99.4897 10.1278C99.7653 10.3892 99.9826 10.7287 100.142 11.1463C100.301 11.5611 100.38 12.0653 100.38 12.6591V13.1108H95.1772V12.1562H99.1317C99.1317 11.821 99.0636 11.5241 98.9272 11.2656C98.7908 11.0043 98.5991 10.7983 98.3519 10.6477C98.1076 10.4972 97.8207 10.4219 97.4911 10.4219C97.1332 10.4219 96.8207 10.5099 96.5536 10.6861C96.2894 10.8594 96.0849 11.0866 95.94 11.3679C95.7979 11.6463 95.7269 11.9489 95.7269 12.2756V13.0213C95.7269 13.4588 95.8036 13.831 95.957 14.1378C96.1133 14.4446 96.3306 14.679 96.609 14.8409C96.8874 15 97.2127 15.0795 97.5849 15.0795C97.8263 15.0795 98.0465 15.0455 98.2454 14.9773C98.4442 14.9062 98.6161 14.8011 98.761 14.6619C98.9059 14.5227 99.0167 14.3509 99.0934 14.1463L100.299 14.3636C100.203 14.7187 100.029 15.0298 99.7795 15.2969C99.5323 15.5611 99.2212 15.767 98.8462 15.9148C98.4741 16.0597 98.0494 16.1321 97.5721 16.1321ZM103.068 12.1136V16H101.794V9.45455H103.017V10.5199H103.098C103.249 10.1733 103.484 9.89489 103.805 9.68466C104.129 9.47443 104.537 9.36932 105.028 9.36932C105.474 9.36932 105.865 9.46307 106.2 9.65057C106.536 9.83523 106.795 10.1108 106.98 10.4773C107.165 10.8437 107.257 11.2969 107.257 11.8366V16H105.983V11.9901C105.983 11.5156 105.859 11.1449 105.612 10.8778C105.365 10.608 105.026 10.473 104.594 10.473C104.298 10.473 104.036 10.5369 103.805 10.6648C103.578 10.7926 103.398 10.9801 103.264 11.2273C103.134 11.4716 103.068 11.767 103.068 12.1136ZM112.021 9.45455V10.4773H108.446V9.45455H112.021ZM109.405 7.88636H110.679V14.0781C110.679 14.3253 110.716 14.5114 110.79 14.6364C110.864 14.7585 110.959 14.8423 111.075 14.8878C111.195 14.9304 111.324 14.9517 111.463 14.9517C111.565 14.9517 111.655 14.9446 111.732 14.9304C111.808 14.9162 111.868 14.9048 111.911 14.8963L112.141 15.9489C112.067 15.9773 111.962 16.0057 111.825 16.0341C111.689 16.0653 111.518 16.0824 111.314 16.0852C110.979 16.0909 110.666 16.0312 110.376 15.9062C110.087 15.7812 109.852 15.5881 109.673 15.3267C109.494 15.0653 109.405 14.7372 109.405 14.3423V7.88636Z" fill="#9333EA"/>
<defs>
<clipPath id="clip0_1_3018">
<path d="M12 5.5H27V17.5H12V5.5Z" fill="white"/>
</clipPath>
</defs>
</svg>
