<svg width="68" height="24" viewBox="0 0 68 24" fill="none" xmlns="http://www.w3.org/2000/svg">
<path d="M55.0625 0C61.6899 0 67.0625 5.37258 67.0625 12C67.0625 18.6274 61.6899 24 55.0625 24H12C5.37258 24 0 18.6274 0 12C0 5.37258 5.37258 0 12 0H55.0625Z" fill="#FFEDD5"/>
<path d="M55.0625 0C61.6899 0 67.0625 5.37258 67.0625 12C67.0625 18.6274 61.6899 24 55.0625 24H12C5.37258 24 0 18.6274 0 12C0 5.37258 5.37258 0 12 0H55.0625Z" stroke="#E5E7EB"/>
<path d="M22.5 20H12V4H22.5V20Z" stroke="#E5E7EB"/>
<g clip-path="url(#clip0_1_3036)">
<path d="M21.75 5.5C21.375 5.5 18.75 6.25 18.75 9.625V12.25C18.75 13.0773 19.4227 13.75 20.25 13.75H21V16.75C21 17.1648 21.3352 17.5 21.75 17.5C22.1648 17.5 22.5 17.1648 22.5 16.75V13.75V11.125V6.25C22.5 5.83516 22.1648 5.5 21.75 5.5ZM13.5 5.875C13.5 5.68281 13.357 5.52344 13.1648 5.50234C12.9727 5.48125 12.8016 5.60781 12.7594 5.79297L12.0492 8.9875C12.0164 9.13516 12 9.28516 12 9.43516C12 10.5109 12.8227 11.3945 13.875 11.4906V16.75C13.875 17.1648 14.2102 17.5 14.625 17.5C15.0398 17.5 15.375 17.1648 15.375 16.75V11.4906C16.4273 11.3945 17.25 10.5109 17.25 9.43516C17.25 9.28516 17.2336 9.13516 17.2008 8.9875L16.4906 5.79297C16.4484 5.60547 16.2727 5.48125 16.0828 5.50234C15.893 5.52344 15.75 5.68281 15.75 5.875V9.02031C15.75 9.14687 15.6469 9.25 15.5203 9.25C15.4008 9.25 15.3023 9.15859 15.2906 9.03906L14.9977 5.84219C14.9813 5.64766 14.8195 5.5 14.625 5.5C14.4305 5.5 14.2687 5.64766 14.2523 5.84219L13.9617 9.03906C13.95 9.15859 13.8516 9.25 13.732 9.25C13.6055 9.25 13.5023 9.14687 13.5023 9.02031V5.875H13.5ZM14.632 9.4375H14.625H14.618L14.625 9.42109L14.632 9.4375Z" fill="#EA580C"/>
</g>
<path d="M27.4588 16V7.27273H32.8707V8.40625H28.7756V11.0653H32.483V12.1946H28.7756V16H27.4588ZM36.6644 16.1321C36.0508 16.1321 35.5153 15.9915 35.0579 15.7102C34.6005 15.429 34.2454 15.0355 33.9925 14.5298C33.7397 14.0241 33.6133 13.4332 33.6133 12.7571C33.6133 12.0781 33.7397 11.4844 33.9925 10.9759C34.2454 10.4673 34.6005 10.0724 35.0579 9.79119C35.5153 9.50994 36.0508 9.36932 36.6644 9.36932C37.2781 9.36932 37.8136 9.50994 38.271 9.79119C38.7283 10.0724 39.0835 10.4673 39.3363 10.9759C39.5891 11.4844 39.7156 12.0781 39.7156 12.7571C39.7156 13.4332 39.5891 14.0241 39.3363 14.5298C39.0835 15.0355 38.7283 15.429 38.271 15.7102C37.8136 15.9915 37.2781 16.1321 36.6644 16.1321ZM36.6687 15.0625C37.0664 15.0625 37.396 14.9574 37.6573 14.7472C37.9187 14.5369 38.1119 14.2571 38.2369 13.9077C38.3647 13.5582 38.4286 13.1733 38.4286 12.7528C38.4286 12.3352 38.3647 11.9517 38.2369 11.6023C38.1119 11.25 37.9187 10.9673 37.6573 10.7543C37.396 10.5412 37.0664 10.4347 36.6687 10.4347C36.2681 10.4347 35.9357 10.5412 35.6715 10.7543C35.4102 10.9673 35.2156 11.25 35.0877 11.6023C34.9627 11.9517 34.9002 12.3352 34.9002 12.7528C34.9002 13.1733 34.9627 13.5582 35.0877 13.9077C35.2156 14.2571 35.4102 14.5369 35.6715 14.7472C35.9357 14.9574 36.2681 15.0625 36.6687 15.0625ZM43.8949 16.1321C43.2813 16.1321 42.7457 15.9915 42.2884 15.7102C41.831 15.429 41.4759 15.0355 41.223 14.5298C40.9702 14.0241 40.8438 13.4332 40.8438 12.7571C40.8438 12.0781 40.9702 11.4844 41.223 10.9759C41.4759 10.4673 41.831 10.0724 42.2884 9.79119C42.7457 9.50994 43.2813 9.36932 43.8949 9.36932C44.5085 9.36932 45.044 9.50994 45.5014 9.79119C45.9588 10.0724 46.3139 10.4673 46.5668 10.9759C46.8196 11.4844 46.946 12.0781 46.946 12.7571C46.946 13.4332 46.8196 14.0241 46.5668 14.5298C46.3139 15.0355 45.9588 15.429 45.5014 15.7102C45.044 15.9915 44.5085 16.1321 43.8949 16.1321ZM43.8991 15.0625C44.2969 15.0625 44.6264 14.9574 44.8878 14.7472C45.1491 14.5369 45.3423 14.2571 45.4673 13.9077C45.5952 13.5582 45.6591 13.1733 45.6591 12.7528C45.6591 12.3352 45.5952 11.9517 45.4673 11.6023C45.3423 11.25 45.1491 10.9673 44.8878 10.7543C44.6264 10.5412 44.2969 10.4347 43.8991 10.4347C43.4986 10.4347 43.1662 10.5412 42.902 10.7543C42.6406 10.9673 42.446 11.25 42.3182 11.6023C42.1932 11.9517 42.1307 12.3352 42.1307 12.7528C42.1307 13.1733 42.1932 13.5582 42.3182 13.9077C42.446 14.2571 42.6406 14.5369 42.902 14.7472C43.1662 14.9574 43.4986 15.0625 43.8991 15.0625ZM50.8185 16.1278C50.2901 16.1278 49.8185 15.9929 49.4038 15.723C48.9918 15.4503 48.668 15.0625 48.4322 14.5597C48.1992 14.054 48.0827 13.4474 48.0827 12.7401C48.0827 12.0327 48.2006 11.4276 48.4364 10.9247C48.6751 10.4219 49.0018 10.0369 49.4165 9.76989C49.8313 9.50284 50.3015 9.36932 50.8271 9.36932C51.2333 9.36932 51.56 9.4375 51.8072 9.57386C52.0572 9.70739 52.2504 9.86364 52.3867 10.0426C52.5259 10.2216 52.6339 10.3793 52.7106 10.5156H52.7873V7.27273H54.0614V16H52.8171V14.9815H52.7106C52.6339 15.1207 52.5231 15.2798 52.3782 15.4588C52.2362 15.6378 52.0401 15.794 51.7901 15.9276C51.5401 16.0611 51.2163 16.1278 50.8185 16.1278ZM51.0998 15.0412C51.4663 15.0412 51.7759 14.9446 52.0288 14.7514C52.2844 14.5554 52.4776 14.2841 52.6083 13.9375C52.7418 13.5909 52.8086 13.1875 52.8086 12.7273C52.8086 12.2727 52.7433 11.875 52.6126 11.5341C52.4819 11.1932 52.2901 10.9276 52.0373 10.7372C51.7844 10.5469 51.4719 10.4517 51.0998 10.4517C50.7163 10.4517 50.3967 10.5511 50.141 10.75C49.8853 10.9489 49.6921 11.2202 49.5614 11.5639C49.4336 11.9077 49.3697 12.2955 49.3697 12.7273C49.3697 13.1648 49.435 13.5582 49.5657 13.9077C49.6964 14.2571 49.8896 14.5341 50.1452 14.7386C50.4038 14.9403 50.7219 15.0412 51.0998 15.0412Z" fill="#EA580C"/>
<defs>
<clipPath id="clip0_1_3036">
<path d="M12 5.5H22.5V17.5H12V5.5Z" fill="white"/>
</clipPath>
</defs>
</svg>
