<svg width="97" height="24" viewBox="0 0 97 24" fill="none" xmlns="http://www.w3.org/2000/svg">
<path d="M84.2344 0C90.8618 0 96.2344 5.37258 96.2344 12C96.2344 18.6274 90.8618 24 84.2344 24H12C5.37258 24 0 18.6274 0 12C0 5.37258 5.37258 0 12 0H84.2344Z" fill="#DCFCE7"/>
<path d="M84.2344 0C90.8618 0 96.2344 5.37258 96.2344 12C96.2344 18.6274 90.8618 24 84.2344 24H12C5.37258 24 0 18.6274 0 12C0 5.37258 5.37258 0 12 0H84.2344Z" stroke="#E5E7EB"/>
<path d="M25.5 20H12V4H25.5V20Z" stroke="#E5E7EB"/>
<g clip-path="url(#clip0_1_3027)">
<path d="M12 6.0625C12 5.75078 12.2508 5.5 12.5625 5.5H13.6289C14.1445 5.5 14.6016 5.8 14.8148 6.25H24.4477C25.0641 6.25 25.5141 6.83594 25.3523 7.43125L24.3914 11.0008C24.1922 11.7367 23.5242 12.25 22.7625 12.25H16.0008L16.1273 12.918C16.1789 13.1828 16.4109 13.375 16.6805 13.375H23.4375C23.7492 13.375 24 13.6258 24 13.9375C24 14.2492 23.7492 14.5 23.4375 14.5H16.6805C15.8695 14.5 15.1734 13.9234 15.0234 13.1289L13.8141 6.77734C13.7977 6.68828 13.7203 6.625 13.6289 6.625H12.5625C12.2508 6.625 12 6.37422 12 6.0625ZM15 16.375C15 16.2273 15.0291 16.081 15.0856 15.9445C15.1422 15.808 15.225 15.684 15.3295 15.5795C15.434 15.475 15.558 15.3922 15.6945 15.3356C15.831 15.2791 15.9773 15.25 16.125 15.25C16.2727 15.25 16.419 15.2791 16.5555 15.3356C16.692 15.3922 16.816 15.475 16.9205 15.5795C17.025 15.684 17.1078 15.808 17.1644 15.9445C17.2209 16.081 17.25 16.2273 17.25 16.375C17.25 16.5227 17.2209 16.669 17.1644 16.8055C17.1078 16.942 17.025 17.066 16.9205 17.1705C16.816 17.275 16.692 17.3578 16.5555 17.4144C16.419 17.4709 16.2727 17.5 16.125 17.5C15.9773 17.5 15.831 17.4709 15.6945 17.4144C15.558 17.3578 15.434 17.275 15.3295 17.1705C15.225 17.066 15.1422 16.942 15.0856 16.8055C15.0291 16.669 15 16.5227 15 16.375ZM22.875 15.25C23.1734 15.25 23.4595 15.3685 23.6705 15.5795C23.8815 15.7905 24 16.0766 24 16.375C24 16.6734 23.8815 16.9595 23.6705 17.1705C23.4595 17.3815 23.1734 17.5 22.875 17.5C22.5766 17.5 22.2905 17.3815 22.0795 17.1705C21.8685 16.9595 21.75 16.6734 21.75 16.375C21.75 16.0766 21.8685 15.7905 22.0795 15.5795C22.2905 15.3685 22.5766 15.25 22.875 15.25Z" fill="#16A34A"/>
</g>
<path d="M35.2188 9.56534C35.1733 9.16193 34.9858 8.84943 34.6562 8.62784C34.3267 8.40341 33.9119 8.29119 33.4119 8.29119C33.054 8.29119 32.7443 8.34801 32.483 8.46165C32.2216 8.57244 32.0185 8.72585 31.8736 8.92188C31.7315 9.11506 31.6605 9.33523 31.6605 9.58239C31.6605 9.78977 31.7088 9.96875 31.8054 10.1193C31.9048 10.2699 32.0341 10.3963 32.1932 10.4986C32.3551 10.598 32.5284 10.6818 32.7131 10.75C32.8977 10.8153 33.0753 10.8693 33.2457 10.9119L34.098 11.1335C34.3764 11.2017 34.6619 11.294 34.9545 11.4105C35.2472 11.527 35.5185 11.6804 35.7685 11.8707C36.0185 12.0611 36.2202 12.2969 36.3736 12.5781C36.5298 12.8594 36.608 13.196 36.608 13.5881C36.608 14.0824 36.4801 14.5213 36.2244 14.9048C35.9716 15.2884 35.6037 15.5909 35.1207 15.8125C34.6406 16.0341 34.0597 16.1449 33.3778 16.1449C32.7244 16.1449 32.1591 16.0412 31.6818 15.8338C31.2045 15.6264 30.831 15.3324 30.5611 14.9517C30.2912 14.5682 30.142 14.1136 30.1136 13.5881H31.4347C31.4602 13.9034 31.5625 14.1662 31.7415 14.3764C31.9233 14.5838 32.1548 14.7386 32.4361 14.8409C32.7202 14.9403 33.0312 14.9901 33.3693 14.9901C33.7415 14.9901 34.0724 14.9318 34.3622 14.8153C34.6548 14.696 34.8849 14.5312 35.0526 14.321C35.2202 14.108 35.304 13.8594 35.304 13.5753C35.304 13.3168 35.2301 13.1051 35.0824 12.9403C34.9375 12.7756 34.7401 12.6392 34.4901 12.5312C34.2429 12.4233 33.9631 12.3281 33.6506 12.2457L32.6193 11.9645C31.9205 11.7741 31.3665 11.4943 30.9574 11.125C30.5511 10.7557 30.348 10.267 30.348 9.65909C30.348 9.15625 30.4844 8.71733 30.7571 8.34233C31.0298 7.96733 31.3991 7.67614 31.8651 7.46875C32.331 7.25852 32.8565 7.15341 33.4418 7.15341C34.0327 7.15341 34.554 7.2571 35.0057 7.46449C35.4602 7.67188 35.8182 7.95739 36.0795 8.32102C36.3409 8.68182 36.4773 9.09659 36.4886 9.56534H35.2188ZM39.3533 12.1136V16H38.0792V7.27273H39.3363V10.5199H39.4173C39.5707 10.1676 39.805 9.88778 40.1204 9.6804C40.4357 9.47301 40.8477 9.36932 41.3562 9.36932C41.805 9.36932 42.1971 9.46165 42.5323 9.64631C42.8704 9.83097 43.1317 10.1065 43.3164 10.473C43.5039 10.8366 43.5977 11.2912 43.5977 11.8366V16H42.3235V11.9901C42.3235 11.5099 42.1999 11.1378 41.9528 10.8736C41.7056 10.6065 41.3619 10.473 40.9215 10.473C40.6204 10.473 40.3505 10.5369 40.1119 10.6648C39.8761 10.7926 39.69 10.9801 39.5536 11.2273C39.4201 11.4716 39.3533 11.767 39.3533 12.1136ZM48.055 16.1321C47.4414 16.1321 46.9059 15.9915 46.4485 15.7102C45.9911 15.429 45.636 15.0355 45.3832 14.5298C45.1303 14.0241 45.0039 13.4332 45.0039 12.7571C45.0039 12.0781 45.1303 11.4844 45.3832 10.9759C45.636 10.4673 45.9911 10.0724 46.4485 9.79119C46.9059 9.50994 47.4414 9.36932 48.055 9.36932C48.6687 9.36932 49.2042 9.50994 49.6616 9.79119C50.119 10.0724 50.4741 10.4673 50.7269 10.9759C50.9798 11.4844 51.1062 12.0781 51.1062 12.7571C51.1062 13.4332 50.9798 14.0241 50.7269 14.5298C50.4741 15.0355 50.119 15.429 49.6616 15.7102C49.2042 15.9915 48.6687 16.1321 48.055 16.1321ZM48.0593 15.0625C48.457 15.0625 48.7866 14.9574 49.0479 14.7472C49.3093 14.5369 49.5025 14.2571 49.6275 13.9077C49.7553 13.5582 49.8192 13.1733 49.8192 12.7528C49.8192 12.3352 49.7553 11.9517 49.6275 11.6023C49.5025 11.25 49.3093 10.9673 49.0479 10.7543C48.7866 10.5412 48.457 10.4347 48.0593 10.4347C47.6587 10.4347 47.3263 10.5412 47.0621 10.7543C46.8008 10.9673 46.6062 11.25 46.4783 11.6023C46.3533 11.9517 46.2908 12.3352 46.2908 12.7528C46.2908 13.1733 46.3533 13.5582 46.4783 13.9077C46.6062 14.2571 46.8008 14.5369 47.0621 14.7472C47.3263 14.9574 47.6587 15.0625 48.0593 15.0625ZM52.5284 18.4545V9.45455H53.7727V10.5156H53.8793C53.9531 10.3793 54.0597 10.2216 54.1989 10.0426C54.3381 9.86364 54.5313 9.70739 54.7784 9.57386C55.0256 9.4375 55.3523 9.36932 55.7585 9.36932C56.2869 9.36932 56.7585 9.50284 57.1733 9.76989C57.5881 10.0369 57.9134 10.4219 58.1491 10.9247C58.3878 11.4276 58.5071 12.0327 58.5071 12.7401C58.5071 13.4474 58.3892 14.054 58.1534 14.5597C57.9176 15.0625 57.5938 15.4503 57.1818 15.723C56.7699 15.9929 56.2997 16.1278 55.7713 16.1278C55.3736 16.1278 55.0483 16.0611 54.7955 15.9276C54.5455 15.794 54.3494 15.6378 54.2074 15.4588C54.0653 15.2798 53.956 15.1207 53.8793 14.9815H53.8026V18.4545H52.5284ZM53.777 12.7273C53.777 13.1875 53.8438 13.5909 53.9773 13.9375C54.1108 14.2841 54.304 14.5554 54.5568 14.7514C54.8097 14.9446 55.1193 15.0412 55.4858 15.0412C55.8665 15.0412 56.1847 14.9403 56.4403 14.7386C56.696 14.5341 56.8892 14.2571 57.0199 13.9077C57.1534 13.5582 57.2202 13.1648 57.2202 12.7273C57.2202 12.2955 57.1548 11.9077 57.0241 11.5639C56.8963 11.2202 56.7031 10.9489 56.4446 10.75C56.1889 10.5511 55.8693 10.4517 55.4858 10.4517C55.1165 10.4517 54.804 10.5469 54.5483 10.7372C54.2955 10.9276 54.1037 11.1932 53.973 11.5341C53.8423 11.875 53.777 12.2727 53.777 12.7273ZM59.9347 18.4545V9.45455H61.179V10.5156H61.2855C61.3594 10.3793 61.4659 10.2216 61.6051 10.0426C61.7443 9.86364 61.9375 9.70739 62.1847 9.57386C62.4318 9.4375 62.7585 9.36932 63.1648 9.36932C63.6932 9.36932 64.1648 9.50284 64.5795 9.76989C64.9943 10.0369 65.3196 10.4219 65.5554 10.9247C65.794 11.4276 65.9134 12.0327 65.9134 12.7401C65.9134 13.4474 65.7955 14.054 65.5597 14.5597C65.3239 15.0625 65 15.4503 64.5881 15.723C64.1761 15.9929 63.706 16.1278 63.1776 16.1278C62.7798 16.1278 62.4545 16.0611 62.2017 15.9276C61.9517 15.794 61.7557 15.6378 61.6136 15.4588C61.4716 15.2798 61.3622 15.1207 61.2855 14.9815H61.2088V18.4545H59.9347ZM61.1832 12.7273C61.1832 13.1875 61.25 13.5909 61.3835 13.9375C61.517 14.2841 61.7102 14.5554 61.9631 14.7514C62.2159 14.9446 62.5256 15.0412 62.892 15.0412C63.2727 15.0412 63.5909 14.9403 63.8466 14.7386C64.1023 14.5341 64.2955 14.2571 64.4261 13.9077C64.5597 13.5582 64.6264 13.1648 64.6264 12.7273C64.6264 12.2955 64.5611 11.9077 64.4304 11.5639C64.3026 11.2202 64.1094 10.9489 63.8509 10.75C63.5952 10.5511 63.2756 10.4517 62.892 10.4517C62.5227 10.4517 62.2102 10.5469 61.9545 10.7372C61.7017 10.9276 61.5099 11.1932 61.3793 11.5341C61.2486 11.875 61.1832 12.2727 61.1832 12.7273ZM67.3409 16V9.45455H68.6151V16H67.3409ZM67.9844 8.4446C67.7628 8.4446 67.5724 8.37074 67.4134 8.22301C67.2571 8.07244 67.179 7.89347 67.179 7.68608C67.179 7.47585 67.2571 7.29687 67.4134 7.14915C67.5724 6.99858 67.7628 6.9233 67.9844 6.9233C68.206 6.9233 68.3949 6.99858 68.5511 7.14915C68.7102 7.29687 68.7898 7.47585 68.7898 7.68608C68.7898 7.89347 68.7102 8.07244 68.5511 8.22301C68.3949 8.37074 68.206 8.4446 67.9844 8.4446ZM71.6033 12.1136V16H70.3292V9.45455H71.5522V10.5199H71.6332C71.7837 10.1733 72.0195 9.89489 72.3406 9.68466C72.6644 9.47443 73.0721 9.36932 73.5636 9.36932C74.0096 9.36932 74.4002 9.46307 74.7354 9.65057C75.0707 9.83523 75.3306 10.1108 75.5153 10.4773C75.6999 10.8437 75.7923 11.2969 75.7923 11.8366V16H74.5181V11.9901C74.5181 11.5156 74.3945 11.1449 74.1474 10.8778C73.9002 10.608 73.5607 10.473 73.1289 10.473C72.8335 10.473 72.5707 10.5369 72.3406 10.6648C72.1133 10.7926 71.9329 10.9801 71.7994 11.2273C71.6687 11.4716 71.6033 11.767 71.6033 12.1136ZM80.2454 18.5909C79.7255 18.5909 79.2781 18.5227 78.9031 18.3864C78.5309 18.25 78.2269 18.0696 77.9911 17.8452C77.7553 17.6207 77.5792 17.375 77.4627 17.108L78.5579 16.6562C78.6346 16.7812 78.7369 16.9134 78.8647 17.0526C78.9954 17.1946 79.1715 17.3153 79.3931 17.4148C79.6175 17.5142 79.9059 17.5639 80.2582 17.5639C80.7411 17.5639 81.1403 17.446 81.4556 17.2102C81.771 16.9773 81.9286 16.6051 81.9286 16.0938V14.8068H81.8477C81.771 14.946 81.6602 15.1009 81.5153 15.2713C81.3732 15.4418 81.1772 15.5895 80.9272 15.7145C80.6772 15.8395 80.3519 15.902 79.9513 15.902C79.4343 15.902 78.9684 15.7812 78.5536 15.5398C78.1417 15.2955 77.815 14.9361 77.5735 14.4616C77.3349 13.9844 77.2156 13.3977 77.2156 12.7017C77.2156 12.0057 77.3335 11.4091 77.5692 10.9119C77.8079 10.4148 78.1346 10.0341 78.5494 9.76989C78.9641 9.50284 79.4343 9.36932 79.9599 9.36932C80.3661 9.36932 80.6942 9.4375 80.9442 9.57386C81.1942 9.70739 81.3888 9.86364 81.5281 10.0426C81.6701 10.2216 81.7795 10.3793 81.8562 10.5156H81.9499V9.45455H83.1985V16.1449C83.1985 16.7074 83.0678 17.169 82.8065 17.5298C82.5451 17.8906 82.1914 18.1577 81.7454 18.331C81.3022 18.5043 80.8022 18.5909 80.2454 18.5909ZM80.2326 14.8452C80.5991 14.8452 80.9087 14.7599 81.1616 14.5895C81.4173 14.4162 81.6104 14.169 81.7411 13.848C81.8746 13.5241 81.9414 13.1364 81.9414 12.6847C81.9414 12.2443 81.8761 11.8565 81.7454 11.5213C81.6147 11.1861 81.4229 10.9247 81.1701 10.7372C80.9173 10.5469 80.6048 10.4517 80.2326 10.4517C79.8491 10.4517 79.5295 10.5511 79.2738 10.75C79.0181 10.946 78.8249 11.2131 78.6942 11.5511C78.5664 11.8892 78.5025 12.267 78.5025 12.6847C78.5025 13.1136 78.5678 13.4901 78.6985 13.8139C78.8292 14.1378 79.0224 14.3906 79.2781 14.5724C79.5366 14.7543 79.8548 14.8452 80.2326 14.8452Z" fill="#16A34A"/>
<defs>
<clipPath id="clip0_1_3027">
<path d="M12 5.5H25.5V17.5H12V5.5Z" fill="white"/>
</clipPath>
</defs>
</svg>
