<svg width="96" height="24" viewBox="0 0 96 24" fill="none" xmlns="http://www.w3.org/2000/svg">
<path d="M83.8438 0C90.4712 0 95.8438 5.37258 95.8438 12C95.8438 18.6274 90.4712 24 83.8438 24H12C5.37258 24 0 18.6274 0 12C0 5.37258 5.37258 5.15422e-07 12 0H83.8438Z" fill="#DBEAFE"/>
<path d="M83.8438 0C90.4712 0 95.8438 5.37258 95.8438 12C95.8438 18.6274 90.4712 24 83.8438 24H12C5.37258 24 0 18.6274 0 12C0 5.37258 5.37258 5.15422e-07 12 0H83.8438Z" stroke="#E5E7EB"/>
<path d="M24 20H12V4H24V20Z" stroke="#E5E7EB"/>
<g clip-path="url(#clip0_1_3009)">
<path d="M15.1687 8.25156L14.557 10H21.443L20.8312 8.25156C20.7258 7.95156 20.4422 7.75 20.1234 7.75H15.8766C15.5578 7.75 15.2742 7.95156 15.1687 8.25156ZM12.9281 10.1125L13.7531 7.75703C14.0695 6.85469 14.9203 6.25 15.8766 6.25H20.1234C21.0797 6.25 21.9305 6.85469 22.2469 7.75703L23.0719 10.1125C23.6156 10.3375 24 10.8742 24 11.5V14.875V16C24 16.4148 23.6648 16.75 23.25 16.75H22.5C22.0852 16.75 21.75 16.4148 21.75 16V14.875H14.25V16C14.25 16.4148 13.9148 16.75 13.5 16.75H12.75C12.3352 16.75 12 16.4148 12 16V14.875V11.5C12 10.8742 12.3844 10.3375 12.9281 10.1125ZM15 12.25C15 12.0511 14.921 11.8603 14.7803 11.7197C14.6397 11.579 14.4489 11.5 14.25 11.5C14.0511 11.5 13.8603 11.579 13.7197 11.7197C13.579 11.8603 13.5 12.0511 13.5 12.25C13.5 12.4489 13.579 12.6397 13.7197 12.7803C13.8603 12.921 14.0511 13 14.25 13C14.4489 13 14.6397 12.921 14.7803 12.7803C14.921 12.6397 15 12.4489 15 12.25ZM21.75 13C21.9489 13 22.1397 12.921 22.2803 12.7803C22.421 12.6397 22.5 12.4489 22.5 12.25C22.5 12.0511 22.421 11.8603 22.2803 11.7197C22.1397 11.579 21.9489 11.5 21.75 11.5C21.5511 11.5 21.3603 11.579 21.2197 11.7197C21.079 11.8603 21 12.0511 21 12.25C21 12.4489 21.079 12.6397 21.2197 12.7803C21.3603 12.921 21.5511 13 21.75 13Z" fill="#2563EB"/>
</g>
<path d="M28.5284 8.40625V7.27273H35.2827V8.40625H32.5597V16H31.2472V8.40625H28.5284ZM35.9933 16V9.45455H37.2248V10.4943H37.293C37.4123 10.142 37.6225 9.86506 37.9237 9.66335C38.2276 9.45881 38.5714 9.35653 38.9549 9.35653C39.0344 9.35653 39.1282 9.35937 39.2362 9.36506C39.3469 9.37074 39.4336 9.37784 39.4961 9.38636V10.6051C39.445 10.5909 39.354 10.5753 39.2234 10.5582C39.0927 10.5384 38.962 10.5284 38.8313 10.5284C38.5302 10.5284 38.2617 10.5923 38.0259 10.7202C37.793 10.8452 37.6083 11.0199 37.4719 11.2443C37.3356 11.4659 37.2674 11.7187 37.2674 12.0028V16H35.9933ZM42.445 16.1449C42.0302 16.1449 41.6552 16.0682 41.32 15.9148C40.9847 15.7585 40.7191 15.5327 40.5231 15.2372C40.3299 14.9418 40.2333 14.5795 40.2333 14.1506C40.2333 13.7812 40.3043 13.4773 40.4464 13.2386C40.5884 13 40.7802 12.8111 41.0217 12.6719C41.2631 12.5327 41.533 12.4276 41.8313 12.3565C42.1296 12.2855 42.4336 12.2315 42.7433 12.1946C43.1353 12.1491 43.4535 12.1122 43.6978 12.0838C43.9421 12.0526 44.1197 12.0028 44.2305 11.9347C44.3413 11.8665 44.3967 11.7557 44.3967 11.6023V11.5724C44.3967 11.2003 44.2915 10.9119 44.0813 10.7074C43.8739 10.5028 43.5643 10.4006 43.1523 10.4006C42.7234 10.4006 42.3853 10.4957 42.1381 10.6861C41.8938 10.8736 41.7248 11.0824 41.631 11.3125L40.4336 11.0398C40.5756 10.642 40.783 10.321 41.0558 10.0767C41.3313 9.82955 41.6481 9.65057 42.006 9.53977C42.364 9.42614 42.7404 9.36932 43.1353 9.36932C43.3967 9.36932 43.6737 9.40057 43.9663 9.46307C44.2617 9.52273 44.5373 9.63352 44.793 9.79545C45.0515 9.95739 45.2631 10.1889 45.4279 10.4901C45.5927 10.7884 45.6751 11.1761 45.6751 11.6534V16H44.4308V15.1051H44.3796C44.2972 15.2699 44.1737 15.4318 44.0089 15.5909C43.8441 15.75 43.6325 15.8821 43.3739 15.9872C43.1154 16.0923 42.8058 16.1449 42.445 16.1449ZM42.7219 15.1222C43.0742 15.1222 43.3754 15.0526 43.6254 14.9134C43.8782 14.7741 44.07 14.5923 44.2006 14.3679C44.3342 14.1406 44.4009 13.8977 44.4009 13.6392V12.7955C44.3555 12.8409 44.2674 12.8835 44.1367 12.9233C44.0089 12.9602 43.8626 12.9929 43.6978 13.0213C43.533 13.0469 43.3725 13.071 43.2163 13.0938C43.06 13.1136 42.9293 13.1307 42.8242 13.1449C42.5771 13.1761 42.3512 13.2287 42.1467 13.3026C41.945 13.3764 41.783 13.483 41.6609 13.6222C41.5415 13.7585 41.4819 13.9403 41.4819 14.1676C41.4819 14.483 41.5984 14.7216 41.8313 14.8835C42.0643 15.0426 42.3612 15.1222 42.7219 15.1222ZM48.6463 12.1136V16H47.3722V9.45455H48.5952V10.5199H48.6761C48.8267 10.1733 49.0625 9.89489 49.3835 9.68466C49.7074 9.47443 50.1151 9.36932 50.6065 9.36932C51.0526 9.36932 51.4432 9.46307 51.7784 9.65057C52.1136 9.83523 52.3736 10.1108 52.5582 10.4773C52.7429 10.8437 52.8352 11.2969 52.8352 11.8366V16H51.5611V11.9901C51.5611 11.5156 51.4375 11.1449 51.1903 10.8778C50.9432 10.608 50.6037 10.473 50.1719 10.473C49.8764 10.473 49.6136 10.5369 49.3835 10.6648C49.1563 10.7926 48.9759 10.9801 48.8423 11.2273C48.7116 11.4716 48.6463 11.767 48.6463 12.1136ZM59.4489 11.0526L58.294 11.2571C58.2457 11.1094 58.169 10.9687 58.0639 10.8352C57.9616 10.7017 57.8224 10.5923 57.6463 10.5071C57.4702 10.4219 57.25 10.3793 56.9858 10.3793C56.625 10.3793 56.3239 10.4602 56.0824 10.6222C55.8409 10.7812 55.7202 10.9872 55.7202 11.2401C55.7202 11.4588 55.8011 11.6349 55.9631 11.7685C56.125 11.902 56.3864 12.0114 56.7472 12.0966L57.7869 12.3352C58.3892 12.4744 58.8381 12.6889 59.1335 12.9787C59.429 13.2685 59.5767 13.6449 59.5767 14.108C59.5767 14.5 59.4631 14.8494 59.2358 15.1562C59.0114 15.4602 58.6974 15.6989 58.294 15.8722C57.8935 16.0455 57.429 16.1321 56.9006 16.1321C56.1676 16.1321 55.5696 15.9759 55.1065 15.6634C54.6435 15.348 54.3594 14.9006 54.2543 14.321L55.4858 14.1335C55.5625 14.4545 55.7202 14.6974 55.9588 14.8622C56.1974 15.0241 56.5085 15.1051 56.892 15.1051C57.3097 15.1051 57.6435 15.0185 57.8935 14.8452C58.1435 14.669 58.2685 14.4545 58.2685 14.2017C58.2685 13.9972 58.1918 13.8253 58.0384 13.6861C57.8878 13.5469 57.6562 13.4418 57.3438 13.3707L56.2358 13.1278C55.625 12.9886 55.1733 12.767 54.8807 12.4631C54.5909 12.1591 54.446 11.7741 54.446 11.3082C54.446 10.9219 54.554 10.5838 54.7699 10.294C54.9858 10.0043 55.2841 9.77841 55.6648 9.61648C56.0455 9.4517 56.4815 9.36932 56.973 9.36932C57.6804 9.36932 58.2372 9.52273 58.6435 9.82955C59.0497 10.1335 59.3182 10.5412 59.4489 11.0526ZM60.9776 18.4545V9.45455H62.2219V10.5156H62.3285C62.4023 10.3793 62.5089 10.2216 62.6481 10.0426C62.7873 9.86364 62.9805 9.70739 63.2276 9.57386C63.4748 9.4375 63.8015 9.36932 64.2077 9.36932C64.7362 9.36932 65.2077 9.50284 65.6225 9.76989C66.0373 10.0369 66.3626 10.4219 66.5984 10.9247C66.837 11.4276 66.9563 12.0327 66.9563 12.7401C66.9563 13.4474 66.8384 14.054 66.6026 14.5597C66.3668 15.0625 66.043 15.4503 65.631 15.723C65.2191 15.9929 64.7489 16.1278 64.2205 16.1278C63.8228 16.1278 63.4975 16.0611 63.2447 15.9276C62.9947 15.794 62.7987 15.6378 62.6566 15.4588C62.5146 15.2798 62.4052 15.1207 62.3285 14.9815H62.2518V18.4545H60.9776ZM62.2262 12.7273C62.2262 13.1875 62.293 13.5909 62.4265 13.9375C62.56 14.2841 62.7532 14.5554 63.006 14.7514C63.2589 14.9446 63.5685 15.0412 63.935 15.0412C64.3157 15.0412 64.6339 14.9403 64.8896 14.7386C65.1452 14.5341 65.3384 14.2571 65.4691 13.9077C65.6026 13.5582 65.6694 13.1648 65.6694 12.7273C65.6694 12.2955 65.604 11.9077 65.4734 11.5639C65.3455 11.2202 65.1523 10.9489 64.8938 10.75C64.6381 10.5511 64.3185 10.4517 63.935 10.4517C63.5657 10.4517 63.2532 10.5469 62.9975 10.7372C62.7447 10.9276 62.5529 11.1932 62.4222 11.5341C62.2915 11.875 62.2262 12.2727 62.2262 12.7273ZM71.141 16.1321C70.5273 16.1321 69.9918 15.9915 69.5344 15.7102C69.0771 15.429 68.7219 15.0355 68.4691 14.5298C68.2163 14.0241 68.0898 13.4332 68.0898 12.7571C68.0898 12.0781 68.2163 11.4844 68.4691 10.9759C68.7219 10.4673 69.0771 10.0724 69.5344 9.79119C69.9918 9.50994 70.5273 9.36932 71.141 9.36932C71.7546 9.36932 72.2901 9.50994 72.7475 9.79119C73.2049 10.0724 73.56 10.4673 73.8129 10.9759C74.0657 11.4844 74.1921 12.0781 74.1921 12.7571C74.1921 13.4332 74.0657 14.0241 73.8129 14.5298C73.56 15.0355 73.2049 15.429 72.7475 15.7102C72.2901 15.9915 71.7546 16.1321 71.141 16.1321ZM71.1452 15.0625C71.543 15.0625 71.8725 14.9574 72.1339 14.7472C72.3952 14.5369 72.5884 14.2571 72.7134 13.9077C72.8413 13.5582 72.9052 13.1733 72.9052 12.7528C72.9052 12.3352 72.8413 11.9517 72.7134 11.6023C72.5884 11.25 72.3952 10.9673 72.1339 10.7543C71.8725 10.5412 71.543 10.4347 71.1452 10.4347C70.7447 10.4347 70.4123 10.5412 70.1481 10.7543C69.8867 10.9673 69.6921 11.25 69.5643 11.6023C69.4393 11.9517 69.3768 12.3352 69.3768 12.7528C69.3768 13.1733 69.4393 13.5582 69.5643 13.9077C69.6921 14.2571 69.8867 14.5369 70.1481 14.7472C70.4123 14.9574 70.7447 15.0625 71.1452 15.0625ZM75.6143 16V9.45455H76.8459V10.4943H76.9141C77.0334 10.142 77.2436 9.86506 77.5447 9.66335C77.8487 9.45881 78.1925 9.35653 78.576 9.35653C78.6555 9.35653 78.7493 9.35937 78.8572 9.36506C78.968 9.37074 79.0547 9.37784 79.1172 9.38636V10.6051C79.0661 10.5909 78.9751 10.5753 78.8445 10.5582C78.7138 10.5384 78.5831 10.5284 78.4524 10.5284C78.1513 10.5284 77.8828 10.5923 77.647 10.7202C77.4141 10.8452 77.2294 11.0199 77.093 11.2443C76.9567 11.4659 76.8885 11.7187 76.8885 12.0028V16H75.6143ZM83.6619 9.45455V10.4773H80.0866V9.45455H83.6619ZM81.0455 7.88636H82.3196V14.0781C82.3196 14.3253 82.3565 14.5114 82.4304 14.6364C82.5043 14.7585 82.5994 14.8423 82.7159 14.8878C82.8352 14.9304 82.9645 14.9517 83.1037 14.9517C83.206 14.9517 83.2955 14.9446 83.3722 14.9304C83.4489 14.9162 83.5085 14.9048 83.5511 14.8963L83.7812 15.9489C83.7074 15.9773 83.6023 16.0057 83.4659 16.0341C83.3295 16.0653 83.1591 16.0824 82.9545 16.0852C82.6193 16.0909 82.3068 16.0312 82.017 15.9062C81.7273 15.7812 81.4929 15.5881 81.3139 15.3267C81.1349 15.0653 81.0455 14.7372 81.0455 14.3423V7.88636Z" fill="#2563EB"/>
<defs>
<clipPath id="clip0_1_3009">
<path d="M12 5.5H24V17.5H12V5.5Z" fill="white"/>
</clipPath>
</defs>
</svg>
