<svg width="48" height="48" viewBox="0 0 48 48" fill="none" xmlns="http://www.w3.org/2000/svg">
<path d="M36 0C42.6274 0 48 5.37258 48 12V36C48 42.6274 42.6274 48 36 48H12C5.37258 48 0 42.6274 0 36V12C0 5.37258 5.37258 0 12 0H36Z" fill="#FEE2E2"/>
<path d="M36 0C42.6274 0 48 5.37258 48 12V36C48 42.6274 42.6274 48 36 48H12C5.37258 48 0 42.6274 0 36V12C0 5.37258 5.37258 0 12 0H36Z" stroke="#E5E7EB"/>
<path d="M34.125 38H13.875V10H34.125V38Z" stroke="#E5E7EB"/>
<g clip-path="url(#clip0_1_2688)">
<path d="M16.125 15.375C14.884 15.375 13.875 16.384 13.875 17.625V18.75H34.125V17.625C34.125 16.384 33.116 15.375 31.875 15.375H16.125ZM34.125 22.125H13.875V28.875C13.875 30.116 14.884 31.125 16.125 31.125H31.875C33.116 31.125 34.125 30.116 34.125 28.875V22.125ZM17.8125 26.625H20.0625C20.3719 26.625 20.625 26.8781 20.625 27.1875C20.625 27.4969 20.3719 27.75 20.0625 27.75H17.8125C17.5031 27.75 17.25 27.4969 17.25 27.1875C17.25 26.8781 17.5031 26.625 17.8125 26.625ZM21.75 27.1875C21.75 26.8781 22.0031 26.625 22.3125 26.625H26.8125C27.1219 26.625 27.375 26.8781 27.375 27.1875C27.375 27.4969 27.1219 27.75 26.8125 27.75H22.3125C22.0031 27.75 21.75 27.4969 21.75 27.1875Z" fill="#EF4444"/>
</g>
<defs>
<clipPath id="clip0_1_2688">
<path d="M13.875 14.25H34.125V32.25H13.875V14.25Z" fill="white"/>
</clipPath>
</defs>
</svg>
